DBRep_DrawableShape

CASCADE Topology V1, (c) Matra-Datavision
Locations 48
1
              1               0               0               0 
              0               1               0               0 
              0               0               1               0 
1
              1               0               0               0 
              0               1               0               0 
              0               0               1               0 
1
              1               0               0               0 
              0               1               0               0 
              0               0               1               0 
2  1 1 2 1 3 1 0
1
              1               0               0               0 
              0               1               0               0 
              0               0               1               0 
1
              1               0               0               0 
              0               1               0               0 
              0               0               1               0 
2  5 1 6 1 0
2  6 -1 5 -1 0
1
              1               0               0               0 
              0               1               0               0 
              0               0               1               0 
1
              1               0               0               0 
              0               1               0               0 
              0               0               1               0 
1
              1               0               0               0 
              0               1               0               0 
              0               0               1               0 
2  9 1 10 1 11 -1 5 1 6 1 0
2  11 1 10 -1 9 -1 0
2  10 -1 9 -1 0
2  1 -1 6 -1 5 -1 11 1 10 -1 9 -1 0
2  1 -1 0
2  1 -1 6 -1 0
1
              1               0               0               0 
              0               1               0               0 
              0               0               1              80 
2  9 1 10 1 11 -1 18 1 5 1 6 1 0
2  18 -1 11 1 10 -1 9 -1 0
2  1 -1 6 -1 5 -1 18 -1 11 1 10 -1 9 -1 0
2  11 -1 5 1 6 1 0
2  6 -1 5 -1 11 1 0
2  11 -1 5 1 0
2  9 1 10 1 0
2  5 -1 11 1 0
2  9 1 10 1 11 -1 5 1 0
2  11 -1 18 1 5 1 6 1 0
2  11 -1 18 1 5 1 0
2  6 -1 5 -1 18 -1 11 1 0
2  5 -1 18 -1 11 1 0
2  9 1 10 1 11 -1 18 1 5 1 0
2  1 -1 6 -1 5 -1 0
2  9 1 10 1 11 -1 0
2  9 1 10 1 11 -1 18 1 0
2  5 -1 0
1
              1               0               0           -1000 
              0               1               0               0 
              0               0               1               0 
2  1 1 2 1 37 1 0
1
            0.5 -0.866025403784439               0            -500 
0.866025403784439             0.5               0 -866.025403784439 
              0               0               1               0 
2  1 1 2 1 39 1 0
1
           -0.5 -0.866025403784439               0             500 
0.866025403784439            -0.5               0 -866.025403784439 
              0               0               1               0 
2  1 1 2 1 41 1 0
1
             -1 -1.22464679914735e-16               0            1000 
1.22464679914735e-16              -1               0 -1.22464679914735e-13 
              0               0               1               0 
2  1 1 2 1 43 1 0
1
-0.500000000000001 0.866025403784439               0             500 
-0.866025403784439 -0.500000000000001               0 866.025403784438 
              0               0               1               0 
2  1 1 2 1 45 1 0
1
            0.5 0.866025403784439               0            -500 
-0.866025403784439             0.5               0 866.025403784439 
              0               0               1               0 
2  1 1 2 1 47 1 0
Curve2ds 108
1 0 0 1 0 
1 -42.199864241908401 316.7174108633053 0.70710678118654768 -0.70710678118654746 
1 10.184121385869803 0 0 -1 
1 0 0 0 1 
1 427.9060578825783 0 0 -1 
1 0 0 0 1 
1 0 -80 1 0 
1 -42.199864241908401 316.7174108633053 0.70710678118654768 -0.70710678118654746 
2 -31.463069043600132 313.05168347686259 0 -1 -1 -0 5
1 -0.7853981633974465 0 1 0 
2 246.2332753739351 -9.0900000000000022e-15 0 -1 -1 -0 20
1 -3.926990816987241 0 1 0 
2 3.5175466213970132 2.155e-14 1 0 -0 1 320
1 0 0 1 0 
1 274.517546621397 2.155e-14 -0.70710678118654757 -0.70710678118654757 
1 0 0 1 0 
2 -31.463069043600047 -313.05168347686259 0 -1 -1 -0 5
1 -0.11127909356845489 0 1 0 
2 3.5175466213970132 2.155e-14 1 0 -0 1 390
1 0 0 1 0 
2 3.5175466213970132 2.155e-14 1 0 -0 1 122.5
1 0 0 1 0 
2 3.5175466213970132 2.155e-14 1 0 -0 1 320
1 0 0 1 0 
2 -125.17213464305978 270.99624708850217 0 -1 -1 -0 20
1 -2.6982452918603772 0 1 0 
2 -125.17213464305782 -270.99624708850314 0 -1 1 0 20
1 -5.839837945450177 0 1 0 
1 -120.76921819060138 294.87760188350524 0.70710678118656367 -0.70710678118653147 
1 0 0 1 0 
1 -120.76921819059908 -294.87760188350626 0.70710678118654779 0.70710678118654735 
1 0 0 1 0 
2 -74.971306090309142 220.79541853575387 0 -1 1 0 20
1 -0.78539816339744351 0 1 0 
2 -74.971306090310748 -220.79541853575606 0 -1 1 0 20
1 -0.78539816339744795 0 1 0 
1 -46.687034842846856 220.79541853575412 -0.70710678118655101 -0.70710678118654413 
1 0 0 1 0 
1 -267.48245337860305 7.8390000000000007e-14 0.70710678118654424 -0.7071067811865509 
1 0 0 1 0 
2 -239.19818213114121 -9.9690000000000002e-14 0 -1 -1 -0 20
1 -0.78539816339745294 0 1 0 
1 2.2449153966239446 0 0 1 
1 7.9652607275429368 0 -0 -1 
1 -0.7853981633974465 80 1 0 
2 -31.463069043600132 313.05168347686259 0 -1 -1 -0 5
1 1.5707963267948966 0 0 1 
1 20.000000000000014 0 0 -1 
1 -3.926990816987241 80 1 0 
2 246.2332753739351 -9.0900000000000022e-15 0 -1 -1 -0 20
2 3.5175466213970132 2.155e-14 1 0 -0 1 320
1 0 -80 1 0 
1 274.517546621397 2.155e-14 -0.70710678118654757 -0.70710678118654757 
1 0 -80 1 0 
2 -31.463069043600047 -313.05168347686259 0 -1 -1 -0 5
1 -0.11127909356845489 80 1 0 
2 3.5175466213970132 2.155e-14 1 0 -0 1 390
1 0 -80 1 0 
2 3.5175466213970132 2.155e-14 1 0 -0 1 122.5
1 0 -80 1 0 
2 3.5175466213970132 2.155e-14 1 0 -0 1 320
1 0 -80 1 0 
2 -125.17213464305978 270.99624708850217 0 -1 -1 -0 20
1 -2.6982452918603772 80 1 0 
2 -125.17213464305782 -270.99624708850314 0 -1 1 0 20
1 -5.839837945450177 80 1 0 
1 -120.76921819060138 294.87760188350524 0.70710678118656367 -0.70710678118653147 
1 0 -80 1 0 
1 -120.76921819059908 -294.87760188350626 0.70710678118654779 0.70710678118654735 
1 0 -80 1 0 
2 -74.971306090309142 220.79541853575387 0 -1 1 0 20
1 -0.78539816339744351 80 1 0 
2 -74.971306090310748 -220.79541853575606 0 -1 1 0 20
1 -0.78539816339744795 80 1 0 
1 -46.687034842846856 220.79541853575412 -0.70710678118655101 -0.70710678118654413 
1 0 -80 1 0 
1 -267.48245337860305 7.8390000000000007e-14 0.70710678118654424 -0.7071067811865509 
1 0 -80 1 0 
2 -239.19818213114121 -9.9690000000000002e-14 0 -1 -1 -0 20
1 -0.78539816339745294 80 1 0 
1 4.6011098868162357 0 -0 -1 
1 0 0 0 1 
1 437.72193649670839 0 0 -1 
1 2.2449153966238939 0 0 1 
1 0 0 0 -1 
1 6.2831853071795862 0 0 -1 
1 0 0 0 -1 
1 6.2831853071795862 0 0 -1 
1 2.0141436885243107 0 -0 -1 
1 0 0 0 1 
1 4.2690416186552831 0 -0 -1 
1 0 0 0 1 
1 1.2287455251268415 0 0 1 
1 13.773335838936916 0 0 -1 
1 1.2287455251268533 0 0 1 
1 13.773335838937157 0 0 -1 
1 84.76802842060178 0 0 -1 
1 1.5707963267949241 0 0 1 
1 84.768028420598583 0 0 -1 
1 0 0 0 1 
1 0 0 0 1 
1 20.000000000000547 0 0 -1 
1 1.5707963267948921 0 0 1 
1 292.2518754031089 0 0 -1 
1 292.2518754031089 0 0 -1 
1 1.5707963267948966 0 0 1 
1 20.000000000000007 0 0 -1 
1 0 0 0 1 
Curves 54
1 -45.71741086330541 316.7174108633053 0 0.70710678118654768 -0.70710678118654746 0 
1 -38.51614957092994 309.51614957092983 0 0 0 1 
1 256.85786437626905 14.142135623730924 0 0 0 1 
1 -45.71741086330541 316.7174108633053 0 0.70710678118654768 -0.70710678118654746 0 
8 0.7853981633974465 3.0303135600213902
2 -34.980615664997146 313.05168347686259 0 -0 -0 -1 0 -1 0 -1 0 0 5
8 3.9269908169872414 5.497787143782138
2 242.7157287525381 -3.0640000000000002e-14 0 -0 -0 -1 0 -1 0 -1 0 0 20
2 0 0 0 0 0 1 1 0 -0 -0 1 0 320
1 271 0 0 -0.70710678118654757 -0.70710678118654757 0 
8 0.11127909356845489 2.3561944901923471
2 -34.98061566499706 -313.05168347686259 0 -0 -0 -1 0 -1 0 -1 0 0 5
2 0 0 0 0 0 1 1 0 -0 -0 1 0 390
2 0 0 0 0 0 1 1 0 -0 -0 1 0 122.5
2 0 0 0 0 0 1 1 0 -0 -0 1 0 320
8 2.6982452918603772 3.9269908169872179
2 -128.68968126445679 270.99624708850217 0 -0 -0 -1 0 -1 0 -1 0 0 20
8 5.839837945450177 7.0685834705770301
2 -128.68968126445483 -270.99624708850314 0 -0 0 1 0 -1 0 1 0 0 20
1 -124.2867648119984 294.87760188350524 0 0.70710678118656367 -0.70710678118653147 0 
1 -124.28676481199609 -294.87760188350626 0 0.70710678118654779 0.70710678118654735 0 
8 0.78539816339744373 2.356194490192367
2 -78.488852711706159 220.79541853575384 0 -0 0 1 0 -1 0 1 0 0 20
8 0.78539816339744828 2.3561944901923404
2 -78.488852711707764 -220.79541853575608 0 -0 0 1 0 -1 0 1 0 0 20
1 -50.204581464243873 220.7954185357541 0 -0.70710678118655101 -0.70710678118654413 0 
1 -271.00000000000006 5.6840000000000001e-14 0 0.70710678118654424 -0.7071067811865509 0 
8 0.78539816339745361 2.3561944901923488
2 -242.71572875253821 -1.2124e-13 0 -0 -0 -1 0 -1 0 -1 0 0 20
1 -35.535863532695274 318.02075781776517 0 0 0 1 
8 0.7853981633974465 3.0303135600213902
2 -34.980615664997146 313.05168347686259 80 -0 -0 -1 0 -1 0 -1 0 0 5
1 256.85786437626905 -14.142135623730979 0 0 0 1 
8 3.9269908169872414 5.497787143782138
2 242.7157287525381 -3.0640000000000002e-14 80 -0 -0 -1 0 -1 0 -1 0 0 20
2 0 0 0 0 0 1 1 0 -0 -0 1 0 320
1 271 0 0 -0.70710678118654757 -0.70710678118654757 0 
8 0.11127909356845489 2.3561944901923471
2 -34.98061566499706 -313.05168347686259 80 -0 -0 -1 0 -1 0 -1 0 0 5
2 0 0 0 0 0 1 1 0 -0 -0 1 0 390
2 0 0 0 0 0 1 1 0 -0 -0 1 0 122.5
2 0 0 0 0 0 1 1 0 -0 -0 1 0 320
8 2.6982452918603772 3.9269908169872179
2 -128.68968126445679 270.99624708850217 80 -0 -0 -1 0 -1 0 -1 0 0 20
8 5.839837945450177 7.0685834705770301
2 -128.68968126445483 -270.99624708850314 80 -0 0 1 0 -1 0 1 0 0 20
1 -124.2867648119984 294.87760188350524 0 0.70710678118656367 -0.70710678118653147 0 
1 -124.28676481199609 -294.87760188350626 0 0.70710678118654779 0.70710678118654735 0 
8 0.78539816339744373 2.356194490192367
2 -78.488852711706159 220.79541853575384 80 -0 0 1 0 -1 0 1 0 0 20
8 0.78539816339744828 2.3561944901923404
2 -78.488852711707764 -220.79541853575608 80 -0 0 1 0 -1 0 1 0 0 20
1 -50.204581464243873 220.7954185357541 0 -0.70710678118655101 -0.70710678118654413 0 
1 -271.00000000000006 5.6840000000000001e-14 0 0.70710678118654424 -0.7071067811865509 0 
8 0.78539816339745361 2.3561944901923488
2 -242.71572875253821 -1.2124e-13 80 -0 -0 -1 0 -1 0 -1 0 0 20
1 -35.53586353269543 -318.02075781776517 0 0 0 1 
1 -38.516149570929826 -309.51614957092983 0 0 0 1 
1 390 0 0 0 0 1 
1 122.5 0 0 0 0 1 
1 -137.26899334875395 289.06266356106897 0 0 0 1 
1 -137.26899334875182 -289.06266356106994 0 0 0 1 
1 -114.54754564072617 285.13838271223347 0 0 0 1 
1 -114.54754564072392 -285.13838271223409 0 0 0 1 
1 -64.34671708797552 234.9375541594851 0 0 0 1 
1 -64.346717087976813 -234.93755415948704 0 0 0 1 
1 -64.346717087975279 206.65328291202283 0 0 0 1 
1 -64.346717087976742 -206.65328291202519 0 0 0 1 
1 -256.85786437626911 14.142135623730898 0 0 0 1 
1 -256.85786437626922 -14.142135623731006 0 0 0 1 
Polygon3D 0
PolygonOnTriangulations 0
Surfaces 20
1 -45.71741086330541 316.7174108633053 0 0.70710678118654746 0.70710678118654768 0 0.70710678118654768 -0.70710678118654746 0 0 0 -1 
1 -3.5175466213970132 -2.155e-14 0 0 0 1 1 0 -0 -0 1 0 
2 -34.980615664997146 313.05168347686259 0 0 0 1 -0.70710678118654746 -0.70710678118654768 0 -0.70710678118654768 0.70710678118654746 -0 5
2 242.7157287525381 -3.0640000000000002e-14 0 0 0 1 0.70710678118654746 0.70710678118654768 -0 0.70710678118654768 -0.70710678118654746 -0 20
1 -3.5175466213970132 -2.155e-14 0 0 0 1 1 0 -0 -0 1 0 
2 0 0 0 -0 -0 -1 1 0 0 -0 1 -0 320
1 271 0 0 0.70710678118654757 -0.70710678118654757 0 -0.70710678118654757 -0.70710678118654757 0 0 -0 -1 
2 -34.98061566499706 -313.05168347686259 0 0 0 1 -0.11104957353967394 -0.99381486818051612 0 -0.99381486818051612 0.11104957353967394 -0 5
2 0 0 0 -0 -0 -1 1 0 0 -0 1 -0 390
2 0 0 0 -0 -0 -1 1 0 0 -0 1 -0 122.5
2 0 0 0 -0 -0 -1 1 0 0 -0 1 -0 320
2 -128.68968126445679 270.99624708850217 0 0 0 1 -0.42896560421485774 0.90332082362833965 0 0.90332082362833965 0.42896560421485774 -0 20
2 -128.68968126445483 -270.99624708850314 0 0 0 1 -0.4289656042148508 -0.90332082362834309 0 0.90332082362834309 -0.4289656042148508 0 20
1 -124.2867648119984 294.87760188350524 0 0.70710678118653147 0.70710678118656367 0 0.70710678118656367 -0.70710678118653147 0 0 0 -1 
1 -124.28676481199609 -294.87760188350626 0 -0.70710678118654735 0.70710678118654779 0 0.70710678118654779 0.70710678118654735 0 0 0 -1 
2 -78.488852711706159 220.79541853575384 0 0 0 1 0.70710678118654413 -0.70710678118655101 0 0.70710678118655101 0.70710678118654413 -0 20
2 -78.488852711707764 -220.79541853575608 0 0 0 1 0.70710678118654735 -0.70710678118654779 0 0.70710678118654779 0.70710678118654735 -0 20
1 -50.204581464243873 220.7954185357541 0 0.70710678118654413 -0.70710678118655101 0 -0.70710678118655101 -0.70710678118654413 0 0 -0 -1 
1 -271.00000000000006 5.6840000000000001e-14 0 0.7071067811865509 0.70710678118654424 0 0.70710678118654424 -0.7071067811865509 0 0 0 -1 
2 -242.71572875253821 -1.2124e-13 0 0 0 1 -0.7071067811865509 -0.70710678118654424 0 -0.70710678118654424 0.7071067811865509 -0 20
Triangulations 0

TShapes 140
Ve
1e-07
-38.5161495709299 309.51614957093 0
0 0

0101101
*
Ve
1e-07
256.857864376269 14.1421356237309 0
0 0

0101101
*
Ed
 1e-07 1 1 0
1  1 0 10.1841213858698 427.906057882578
2  1 1 13 10.1841213858698 427.906057882578
2  2 2 14 10.1841213858698 427.906057882578
0

0101000
+140 15 -139 15 *
Ve
1e-07
-38.5161495709299 309.51614957093 80
0 0

0101101
*
Ed
 1e-07 1 1 0
1  2 0 0 80
2  3 1 7 0 80
2  4 3 0 0 80
4 G1 1 7 3 0
0

0101000
+140 16 -137 16 *
Ve
1e-07
256.857864376269 14.1421356237309 80
0 0

0101101
*
Ed
 1e-07 1 1 0
1  3 0 -0 80
2  5 1 5 -0 80
2  6 4 0 -0 80
4 G1 1 5 4 0
0

0101000
+139 17 -135 17 *
Ed
 1e-07 1 1 0
1  4 0 10.1841213858698 427.906057882578
2  7 1 20 10.1841213858698 427.906057882578
2  8 5 14 10.1841213858698 427.906057882578
0

0101000
+137 21 -135 21 *
Wi

0101100
-138 12 +136 0 -134 6 +133 19 *
Fa
0  1e-07 1 0

0111000
+132 8 *
Ve
1e-07
-35.5358635326952 318.020757817765 0
0 0

0101101
*
Ed
 1e-07 1 1 0
1  5 0 0.785398163397447 3.03031356002139
2  9 2 22 0.785398163397447 3.03031356002139
2  10 3 0 0.785398163397447 3.03031356002139
0

0101000
+140 16 -130 16 *
Ve
1e-07
256.857864376269 -14.142135623731 0
0 0

0101101
*
Ed
 1e-07 1 1 0
1  6 0 3.92699081698724 5.49778714378214
2  11 2 24 3.92699081698724 5.49778714378214
2  12 4 0 3.92699081698724 5.49778714378214
0

0101000
+139 17 -128 17 *
Ve
1e-07
-35.5358635326954 -318.020757817765 0
0 0

0101101
*
Ed
 1e-07 1 1 0
1  7 0 4.60110988681624 7.96526072754294
2  13 2 14 4.60110988681624 7.96526072754294
2  14 6 13 4.60110988681624 7.96526072754294
0

0101000
+126 15 -130 15 *
Ve
1e-07
-38.5161495709298 -309.51614957093 0
0 0

0101101
*
Ed
 1e-07 1 1 0
1  8 0 20 437.721936496708
2  15 2 14 20 437.721936496708
2  16 7 13 20 437.721936496708
0

0101000
-124 15 +128 15 *
Ed
 1e-07 1 1 0
1  9 0 0.111279093568455 2.35619449019235
2  17 2 22 0.111279093568455 2.35619449019235
2  18 8 0 0.111279093568455 2.35619449019235
0

0101000
+126 16 -124 16 *
Wi

0101100
-138 12 +129 0 -127 6 -125 12 -123 12 +122 0 *
Ve
1e-07
390 0 0
0 0

0101101
*
Ed
 1e-07 1 1 0
1  10 0 0 6.28318530717959
2  19 2 14 0 6.28318530717959
2  20 9 13 0 6.28318530717959
0

0101000
+120 15 -120 15 *
Wi

0101100
+119 0 *
Ve
1e-07
122.5 0 0
0 0

0101101
*
Ed
 1e-07 1 1 0
1  11 0 0 6.28318530717959
2  21 2 14 0 6.28318530717959
2  22 10 13 0 6.28318530717959
0

0101000
+117 15 -117 15 *
Wi

0101100
+116 0 *
Ve
1e-07
-137.268993348754 289.062663561069 0
0 0

0101101
*
Ve
1e-07
-137.268993348752 -289.06266356107 0
0 0

0101101
*
Ed
 1e-07 1 1 0
1  12 0 2.01414368852431 4.26904161865528
2  23 2 14 2.01414368852431 4.26904161865528
2  24 11 13 2.01414368852431 4.26904161865528
0

0101000
+114 15 -113 15 *
Ve
1e-07
-114.547545640726 285.138382712233 0
0 0

0101101
*
Ed
 1e-07 1 1 0
1  13 0 2.69824529186038 3.92699081698722
2  25 2 24 2.69824529186038 3.92699081698722
2  26 12 0 2.69824529186038 3.92699081698722
0

0101000
+114 17 -111 17 *
Ve
1e-07
-114.547545640724 -285.138382712234 0
0 0

0101101
*
Ed
 1e-07 1 1 0
1  14 0 5.83983794545018 7.06858347057703
2  27 2 24 5.83983794545018 7.06858347057703
2  28 13 0 5.83983794545018 7.06858347057703
0

0101000
+113 17 -109 17 *
Ve
1e-07
-64.3467170879755 234.937554159485 0
0 0

0101101
*
Ed
 1e-07 1 1 0
1  15 0 13.7733358389369 84.7680284206018
2  29 2 14 13.7733358389369 84.7680284206018
2  30 14 13 13.7733358389369 84.7680284206018
0

0101000
+111 15 -107 15 *
Ve
1e-07
-64.3467170879768 -234.937554159487 0
0 0

0101101
*
Ed
 1e-07 1 1 0
1  16 0 13.7733358389371 84.7680284205986
2  31 2 14 13.7733358389371 84.7680284205986
2  32 15 13 13.7733358389371 84.7680284205986
0

0101000
+109 15 -105 15 *
Ve
1e-07
-64.3467170879753 206.653282912023 0
0 0

0101101
*
Ed
 1e-07 1 1 0
1  17 0 0.785398163397444 2.35619449019237
2  33 2 24 0.785398163397444 2.35619449019237
2  34 16 0 0.785398163397444 2.35619449019237
0

0101000
+103 17 -107 17 *
Ve
1e-07
-64.3467170879767 -206.653282912025 0
0 0

0101101
*
Ed
 1e-07 1 1 0
1  18 0 0.785398163397448 2.35619449019234
2  35 2 24 0.785398163397448 2.35619449019234
2  36 17 0 0.785398163397448 2.35619449019234
0

0101000
+105 17 -101 17 *
Ve
1e-07
-256.857864376269 14.1421356237309 0
0 0

0101101
*
Ed
 1e-07 1 1 0
1  19 0 20.0000000000005 292.251875403109
2  37 2 14 20.0000000000005 292.251875403109
2  38 18 13 20.0000000000005 292.251875403109
0

0101000
+103 15 -99 15 *
Ve
1e-07
-256.857864376269 -14.142135623731 0
0 0

0101101
*
Ed
 1e-07 1 1 0
1  20 0 20 292.251875403109
2  39 2 14 20 292.251875403109
2  40 19 13 20 292.251875403109
0

0101000
+97 15 -101 15 *
Ed
 1e-07 1 1 0
1  21 0 0.785398163397454 2.35619449019235
2  41 2 24 0.785398163397454 2.35619449019235
2  42 20 0 0.785398163397454 2.35619449019235
0

0101000
+97 17 -99 17 *
Wi

0101100
-112 27 +110 0 -108 0 +106 27 -104 27 -102 0 -100 0 +98 27 +96 27 -95 0 
*
Fa
0  1e-07 2 0

0111000
+121 23 +118 25 -115 25 +94 26 *
Ve
1e-07
-35.5358635326952 318.020757817765 80
0 0

0101101
*
Ed
 1e-07 1 1 0
1  22 0 -0 80
2  43 3 0 -0 80
2  44 6 7 -0 80
4 G1 3 0 6 7
0

0101000
+130 16 -92 16 *
Ed
 1e-07 1 1 0
1  23 0 0.785398163397447 3.03031356002139
2  45 3 0 0.785398163397447 3.03031356002139
2  46 5 28 0.785398163397447 3.03031356002139
0

0101000
+137 16 -92 16 *
Wi

0101100
+129 0 -136 0 +91 0 -90 0 *
Fa
0  1e-07 3 0

0111000
+89 0 *
Ve
1e-07
256.857864376269 -14.142135623731 80
0 0

0101101
*
Ed
 1e-07 1 1 0
1  24 0 -0 80
2  47 4 0 -0 80
2  48 7 5 -0 80
4 G1 4 0 7 5
0

0101000
+128 17 -87 17 *
Ed
 1e-07 1 1 0
1  25 0 3.92699081698724 5.49778714378214
2  49 4 0 3.92699081698724 5.49778714378214
2  50 5 29 3.92699081698724 5.49778714378214
0

0101000
+135 17 -87 17 *
Wi

0101100
+127 0 -134 0 +86 0 -85 0 *
Fa
0  1e-07 4 0

0111000
+84 0 *
Ve
1e-07
-35.5358635326954 -318.020757817765 80
0 0

0101101
*
Ed
 1e-07 1 1 0
1  26 0 4.60110988681624 7.96526072754294
2  51 5 14 4.60110988681624 7.96526072754294
2  52 6 20 4.60110988681624 7.96526072754294
0

0101000
+82 21 -92 21 *
Ve
1e-07
-38.5161495709298 -309.51614957093 80
0 0

0101101
*
Ed
 1e-07 1 1 0
1  27 0 20 437.721936496708
2  53 5 14 20 437.721936496708
2  54 7 20 20 437.721936496708
0

0101000
-80 21 +87 21 *
Ed
 1e-07 1 1 0
1  28 0 0.111279093568455 2.35619449019235
2  55 5 28 0.111279093568455 2.35619449019235
2  56 8 0 0.111279093568455 2.35619449019235
0

0101000
+82 16 -80 16 *
Wi

0101100
-133 19 +90 0 -85 6 -81 19 -79 19 +78 0 *
Ve
1e-07
390 0 80
0 0

0101101
*
Ed
 1e-07 1 1 0
1  29 0 0 6.28318530717959
2  57 5 14 0 6.28318530717959
2  58 9 20 0 6.28318530717959
0

0101000
+76 21 -76 21 *
Wi

0101100
+75 0 *
Ve
1e-07
122.5 0 80
0 0

0101101
*
Ed
 1e-07 1 1 0
1  30 0 0 6.28318530717959
2  59 5 14 0 6.28318530717959
2  60 10 20 0 6.28318530717959
0

0101000
+73 21 -73 21 *
Wi

0101100
+72 0 *
Ve
1e-07
-137.268993348754 289.062663561069 80
0 0

0101101
*
Ve
1e-07
-137.268993348752 -289.06266356107 80
0 0

0101101
*
Ed
 1e-07 1 1 0
1  31 0 2.01414368852431 4.26904161865528
2  61 5 14 2.01414368852431 4.26904161865528
2  62 11 20 2.01414368852431 4.26904161865528
0

0101000
+70 21 -69 21 *
Ve
1e-07
-114.547545640726 285.138382712233 80
0 0

0101101
*
Ed
 1e-07 1 1 0
1  32 0 2.69824529186038 3.92699081698722
2  63 5 29 2.69824529186038 3.92699081698722
2  64 12 0 2.69824529186038 3.92699081698722
0

0101000
+70 17 -67 17 *
Ve
1e-07
-114.547545640724 -285.138382712234 80
0 0

0101101
*
Ed
 1e-07 1 1 0
1  33 0 5.83983794545018 7.06858347057703
2  65 5 29 5.83983794545018 7.06858347057703
2  66 13 0 5.83983794545018 7.06858347057703
0

0101000
+69 17 -65 17 *
Ve
1e-07
-64.3467170879755 234.937554159485 80
0 0

0101101
*
Ed
 1e-07 1 1 0
1  34 0 13.7733358389369 84.7680284206018
2  67 5 14 13.7733358389369 84.7680284206018
2  68 14 20 13.7733358389369 84.7680284206018
0

0101000
+67 21 -63 21 *
Ve
1e-07
-64.3467170879768 -234.937554159487 80
0 0

0101101
*
Ed
 1e-07 1 1 0
1  35 0 13.7733358389371 84.7680284205986
2  69 5 14 13.7733358389371 84.7680284205986
2  70 15 20 13.7733358389371 84.7680284205986
0

0101000
+65 21 -61 21 *
Ve
1e-07
-64.3467170879753 206.653282912023 80
0 0

0101101
*
Ed
 1e-07 1 1 0
1  36 0 0.785398163397444 2.35619449019237
2  71 5 29 0.785398163397444 2.35619449019237
2  72 16 0 0.785398163397444 2.35619449019237
0

0101000
+59 17 -63 17 *
Ve
1e-07
-64.3467170879767 -206.653282912025 80
0 0

0101101
*
Ed
 1e-07 1 1 0
1  37 0 0.785398163397448 2.35619449019234
2  73 5 29 0.785398163397448 2.35619449019234
2  74 17 0 0.785398163397448 2.35619449019234
0

0101000
+61 17 -57 17 *
Ve
1e-07
-256.857864376269 14.1421356237309 80
0 0

0101101
*
Ed
 1e-07 1 1 0
1  38 0 20.0000000000005 292.251875403109
2  75 5 14 20.0000000000005 292.251875403109
2  76 18 20 20.0000000000005 292.251875403109
0

0101000
+59 21 -55 21 *
Ve
1e-07
-256.857864376269 -14.142135623731 80
0 0

0101101
*
Ed
 1e-07 1 1 0
1  39 0 20 292.251875403109
2  77 5 14 20 292.251875403109
2  78 19 20 20 292.251875403109
0

0101000
+53 21 -57 21 *
Ed
 1e-07 1 1 0
1  40 0 0.785398163397454 2.35619449019235
2  79 5 29 0.785398163397454 2.35619449019235
2  80 20 0 0.785398163397454 2.35619449019235
0

0101000
+53 17 -55 17 *
Wi

0101100
-68 32 +66 0 -64 0 +62 32 -60 32 -58 0 -56 0 +54 32 +52 32 -51 0 
*
Fa
0  1e-07 5 0

0111000
+77 30 +74 25 -71 25 +50 31 *
Ed
 1e-07 1 1 0
1  41 0 -0 80
2  81 6 7 -0 80
2  82 8 0 -0 80
4 G1 6 7 8 0
0

0101000
+126 16 -82 16 *
Wi

0101100
-125 12 +48 0 -91 0 +81 19 *
Fa
0  1e-07 6 0

0111000
+47 8 *
Ed
 1e-07 1 1 0
1  42 0 -0 80
2  83 7 7 -0 80
2  84 8 0 -0 80
4 G1 7 7 8 0
0

0101000
+124 16 -80 16 *
Wi

0101100
-123 12 -45 0 +86 6 +79 19 *
Fa
0  1e-07 7 0

0111000
+44 8 *
Wi

0101100
+122 0 -48 0 +45 0 -78 0 *
Fa
0  1e-07 8 0

0111000
+42 0 *
Ed
 1e-07 1 1 0
1  43 0 0 80
3  85 86CN 9 0 0 80
0

0101000
+120 33 -76 33 *
Wi

0101100
+40 0 -40 0 -119 34 +75 35 *
Fa
0  1e-07 9 0

0111000
+39 0 *
Ed
 1e-07 1 1 0
1  44 0 0 80
3  87 88CN 10 0 0 80
0

0101000
+117 33 -73 33 *
Wi

0101100
+37 0 -37 0 -116 34 +72 35 *
Fa
0  1e-07 10 0

0111000
+36 0 *
Ed
 1e-07 1 1 0
1  45 0 -0 80
2  89 11 5 -0 80
2  90 12 0 -0 80
4 G1 11 5 12 0
0

0101000
+114 17 -70 17 *
Ed
 1e-07 1 1 0
1  46 0 -0 80
2  91 11 5 -0 80
2  92 13 0 -0 80
4 G1 11 5 13 0
0

0101000
+113 17 -69 17 *
Wi

0101100
-112 27 +34 0 -33 0 +68 32 *
Fa
0  1e-07 11 0

0111000
+32 36 *
Ed
 1e-07 1 1 0
1  47 0 -0 80
2  93 12 0 -0 80
2  94 14 5 -0 80
4 G1 12 0 14 5
0

0101000
+111 17 -67 17 *
Wi

0101100
+110 0 -34 0 +30 0 -66 0 *
Fa
0  1e-07 12 0

0111000
+29 0 *
Ed
 1e-07 1 1 0
1  48 0 -0 80
2  95 13 0 -0 80
2  96 15 5 -0 80
4 G1 13 0 15 5
0

0101000
+109 17 -65 17 *
Wi

0101100
+108 0 -33 0 +27 0 -64 0 *
Fa
0  1e-07 13 0

0111000
+26 0 *
Ed
 1e-07 1 1 0
1  49 0 0 80
2  97 14 5 0 80
2  98 16 0 0 80
4 G1 14 5 16 0
0

0101000
+107 17 -63 17 *
Wi

0101100
-106 27 +30 0 -24 0 +62 32 *
Fa
0  1e-07 14 0

0111000
+23 36 *
Ed
 1e-07 1 1 0
1  50 0 -0 80
2  99 15 5 -0 80
2  100 17 0 -0 80
4 G1 15 5 17 0
0

0101000
+105 17 -61 17 *
Wi

0101100
-104 27 +27 0 -21 0 +60 32 *
Fa
0  1e-07 15 0

0111000
+20 36 *
Ed
 1e-07 1 1 0
1  51 0 0 80
2  101 16 0 0 80
2  102 18 5 0 80
4 G1 16 0 18 5
0

0101000
+103 17 -59 17 *
Wi

0101100
+102 0 -18 0 +24 0 -58 0 *
Fa
0  1e-07 16 0

0111000
+17 0 *
Ed
 1e-07 1 1 0
1  52 0 -0 80
2  103 17 0 -0 80
2  104 19 5 -0 80
4 G1 17 0 19 5
0

0101000
+101 17 -57 17 *
Wi

0101100
+100 0 -21 0 +15 0 -56 0 *
Fa
0  1e-07 17 0

0111000
+14 0 *
Ed
 1e-07 1 1 0
1  53 0 -0 80
2  105 18 5 -0 80
2  106 20 0 -0 80
4 G1 18 5 20 0
0

0101000
+99 17 -55 17 *
Wi

0101100
-98 27 +18 0 -12 0 +54 32 *
Fa
0  1e-07 18 0

0111000
+11 36 *
Ed
 1e-07 1 1 0
1  54 0 -0 80
2  107 19 5 -0 80
2  108 20 0 -0 80
4 G1 19 5 20 0
0

0101000
+97 17 -53 17 *
Wi

0101100
-96 27 +9 0 -15 0 +52 32 *
Fa
0  1e-07 19 0

0111000
+8 36 *
Wi

0101100
+95 0 -9 0 +12 0 -51 0 *
Fa
0  1e-07 20 0

0111000
+6 0 *
Sh

0101100
+131 7 -93 22 +88 0 -83 6 +49 28 +46 7 +43 7 +41 0 -38 7 +35 7 
+31 7 +28 6 -25 6 -22 7 +19 7 -16 6 -13 6 -10 7 -7 7 -5 6 
*
So

0100000
+4 0 *
Co

0100000
+3 4 +3 38 +3 40 +3 42 +3 44 +3 46 +3 48 *
Co

1100000
+2 0 *

+1 0 